<!DOCTYPE svg PUBLIC "-//W3C//DTD SVG 1.1//EN" "http://www.w3.org/Graphics/SVG/1.1/DTD/svg11.dtd">
<!-- Uploaded to: SVG Repo, www.svgrepo.com, Transformed by: SVG Repo Mixer Tools -->
<svg width="800px" height="800px" viewBox="-3.2 -3.2 38.40 38.40" version="1.1" xmlns="http://www.w3.org/2000/svg" xmlns:xlink="http://www.w3.org/1999/xlink" xmlns:sketch="http://www.bohemiancoding.com/sketch/ns" fill="#000000">
<g id="SVGRepo_bgCarrier" stroke-width="0">
<rect x="-3.2" y="-3.2" width="38.40" height="38.40" rx="0" fill="#986288" strokewidth="0"/>
</g>
<g id="SVGRepo_tracerCarrier" stroke-linecap="round" stroke-linejoin="round"/>
<g id="SVGRepo_iconCarrier"> <title>sunset 2</title> <desc>Created with Sketch Beta.</desc> <defs> </defs> <g id="Page-1" stroke="none" stroke-width="1" fill="none" fill-rule="evenodd" sketch:type="MSPage"> <g id="Icon-Set-Filled" sketch:type="MSLayerGroup" transform="translate(-362.000000, -829.000000)" fill="#EFD595"> <path d="M390,855 L366,855 C365.447,855 365,855.447 365,856 C365,856.553 365.447,857 366,857 L390,857 C390.553,857 391,856.553 391,856 C391,855.447 390.553,855 390,855 L390,855 Z M393,851 L363,851 C362.447,851 362,851.447 362,852 C362,852.553 362.447,853 363,853 L393,853 C393.553,853 394,852.553 394,852 C394,851.447 393.553,851 393,851 L393,851 Z M393.476,849 C393.806,847.72 394,846.384 394,845 C394,836.164 386.837,829 378,829 C369.163,829 362,836.164 362,845 C362,846.384 362.194,847.72 362.524,849 L393.476,849 L393.476,849 Z M383,859 L373,859 C372.447,859 372,859.447 372,860 C372,860.553 372.447,861 373,861 L383,861 C383.553,861 384,860.553 384,860 C384,859.447 383.553,859 383,859 L383,859 Z" id="sunset-2" sketch:type="MSShapeGroup"> </path> </g> </g> </g>
</svg>